<?xml version="1.0" encoding="UTF-8"?>
<svg version="1.1" xmlns="http://www.w3.org/2000/svg" width="512" height="512">
<path d="M0 0 C0.81449615 -0.00979385 1.62899231 -0.01958771 2.46817017 -0.02967834 C20.09281652 -0.19798797 37.08588597 -0.12432507 54.27734375 4.23828125 C55.16325195 4.45258789 56.04916016 4.66689453 56.96191406 4.88769531 C69.69683261 8.01788817 81.52600373 12.44451132 93.27734375 18.23828125 C94.004375 18.59293457 94.73140625 18.94758789 95.48046875 19.31298828 C105.79518704 24.39490733 115.15904971 30.24536918 124.27734375 37.23828125 C125.15003906 37.88667969 126.02273438 38.53507812 126.921875 39.203125 C142.05943245 50.94577709 155.66082054 65.30109396 166.27734375 81.23828125 C166.67566406 81.83495605 167.07398438 82.43163086 167.484375 83.04638672 C185.06169683 109.86062056 197.30313165 142.80204679 197.48046875 175.1015625 C197.48616882 175.93302292 197.4918689 176.76448334 197.4977417 177.62113953 C197.50713859 179.37672681 197.51370439 181.1323313 197.51757812 182.88793945 C197.52717845 185.50570772 197.55820836 188.12265323 197.58984375 190.74023438 C197.6881759 206.25219967 195.81078028 221.2834736 191.58984375 236.23828125 C191.33493164 237.1506958 191.08001953 238.06311035 190.81738281 239.00317383 C184.52365603 260.694725 174.07222028 281.37683689 160.27734375 299.23828125 C159.30667969 300.54345703 159.30667969 300.54345703 158.31640625 301.875 C146.5814163 317.01916687 132.21436419 330.62186919 116.27734375 341.23828125 C115.68066895 341.63660156 115.08399414 342.03492188 114.46923828 342.4453125 C87.65500444 360.02263433 54.71357821 372.26406915 22.4140625 372.44140625 C21.58260208 372.44710632 20.75114166 372.4528064 19.89448547 372.4586792 C18.13889819 372.46807609 16.3832937 372.47464189 14.62768555 372.47851562 C12.00991728 372.48811595 9.39297177 372.51914586 6.77539062 372.55078125 C-8.73657467 372.6491134 -23.7678486 370.77171778 -38.72265625 366.55078125 C-39.6350708 366.29586914 -40.54748535 366.04095703 -41.48754883 365.77832031 C-63.1791 359.48459353 -83.86121189 349.03315778 -101.72265625 335.23828125 C-103.02783203 334.26761719 -103.02783203 334.26761719 -104.359375 333.27734375 C-119.50354187 321.5423538 -133.10624419 307.17530169 -143.72265625 291.23828125 C-144.12097656 290.64160645 -144.51929688 290.04493164 -144.9296875 289.43017578 C-162.50700933 262.61594194 -174.74844415 229.67451571 -174.92578125 197.375 C-174.93148132 196.54353958 -174.9371814 195.71207916 -174.9430542 194.85542297 C-174.95245109 193.09983569 -174.95901689 191.3442312 -174.96289062 189.58862305 C-174.97249095 186.97085478 -175.00352086 184.35390927 -175.03515625 181.73632812 C-175.1334884 166.22436283 -173.25609278 151.1930889 -169.03515625 136.23828125 C-168.78024414 135.3258667 -168.52533203 134.41345215 -168.26269531 133.47338867 C-161.96896853 111.7818375 -151.51753278 91.09972561 -137.72265625 73.23828125 C-137.07554687 72.36816406 -136.4284375 71.49804688 -135.76171875 70.6015625 C-124.0267288 55.45739563 -109.65967669 41.85469331 -93.72265625 31.23828125 C-93.12598145 30.83996094 -92.52930664 30.44164063 -91.91455078 30.03125 C-65.10385467 12.45624723 -32.2787621 0.32157823 0 0 Z " fill="#34D386" transform="translate(245.72265625,70.76171875)"/>
<path d="M0 0 C7.42311306 4.50908107 14.38946754 9.40983792 21.2109375 14.78515625 C22.11585938 15.49542969 23.02078125 16.20570313 23.953125 16.9375 C34.42770007 25.3323406 44.07828896 34.57383805 53.5859375 44.03515625 C54.23973389 44.68427979 54.89353027 45.33340332 55.56713867 46.00219727 C59.9831566 50.43283591 64.15402877 55.02447423 68.2109375 59.78515625 C68.75041016 60.4179248 69.28988281 61.05069336 69.84570312 61.70263672 C108.47065119 107.37465764 140.41490985 160.53387624 158.50585938 217.68823242 C159.16481927 219.80861133 159.16481927 219.80861133 160.2109375 221.78515625 C160.76175643 225.83597047 160.52099204 227.35769135 158.0859375 230.71484375 C157.14333343 231.71172605 156.18399159 232.69297349 155.2109375 233.66015625 C154.70401367 234.18407959 154.19708984 234.70800293 153.67480469 235.24780273 C152.65726456 236.29579173 151.63359307 237.33786662 150.60351562 238.37353516 C149.45150342 239.54130068 148.33411098 240.74310649 147.2265625 241.953125 C139.12662516 250.64442944 128.51024336 257.92868821 118.2109375 263.78515625 C117.5509375 263.78515625 116.8909375 263.78515625 116.2109375 263.78515625 C114.21913996 257.48707018 112.30191058 251.18688199 110.59936523 244.80517578 C98.33936119 199.14328706 78.54761832 156.94611157 52.2109375 117.78515625 C47.94498073 119.33280568 45.73187981 122.54304008 43.0859375 126.03515625 C42.36470703 126.97343262 42.36470703 126.97343262 41.62890625 127.93066406 C40.1446202 129.87367632 38.67543522 131.82719726 37.2109375 133.78515625 C36.77942383 134.35878906 36.34791016 134.93242187 35.90332031 135.5234375 C29.13972437 144.56981328 23.19597037 154.05789117 17.42138672 163.75927734 C16.38679174 165.49083626 15.33390394 167.21144316 14.27734375 168.9296875 C2.03958253 189.13753802 -7.98792329 212.19154125 -14.7890625 234.78515625 C-15.3083331 236.47794456 -15.82788331 238.17064711 -16.34765625 239.86328125 C-19.30805535 249.50937716 -19.30805535 249.50937716 -21.90234375 259.2578125 C-22.7890625 262.78515625 -22.7890625 262.78515625 -23.7890625 264.78515625 C-35.77628487 260.45457685 -45.94123897 251.62451821 -55.25732422 243.16601562 C-56.6437883 241.91612069 -58.06055923 240.70004729 -59.48046875 239.48828125 C-60.22167969 238.823125 -60.96289062 238.15796875 -61.7265625 237.47265625 C-62.35433594 236.91964844 -62.98210937 236.36664063 -63.62890625 235.796875 C-65.04506335 233.34124905 -64.94757443 231.74176201 -64.40551758 228.99584961 C-62.99859512 223.95043067 -61.07303475 219.09510057 -59.1640625 214.22265625 C-58.71111816 213.05750488 -58.25817383 211.89235352 -57.79150391 210.69189453 C-54.54400171 202.4482351 -50.95000187 194.60848925 -46.7890625 186.78515625 C-45.8556183 184.91216025 -44.93681665 183.03234697 -44.01757812 181.15234375 C-32.50994457 157.72362872 -19.30516513 135.20208853 -3.21386719 114.61132812 C-1.79133377 112.78806733 -0.38661024 110.95218176 1.015625 109.11328125 C7.87446472 100.17878773 15.1723011 91.69157823 23.2109375 83.78515625 C21.56445485 79.56157033 18.44128982 76.71360642 15.2734375 73.59765625 C14.69223145 73.02176758 14.11102539 72.44587891 13.51220703 71.85253906 C9.16077084 67.59489918 4.63063602 63.65046808 -0.1484375 59.875 C-1.85288763 58.52606388 -3.53255906 57.1449231 -5.1796875 55.7265625 C-18.64002838 44.1921509 -33.92212878 34.63331702 -49.7890625 26.78515625 C-49.7890625 25.79515625 -49.7890625 24.80515625 -49.7890625 23.78515625 C-47.97353241 22.08902865 -46.21292019 20.63284002 -44.2265625 19.16015625 C-43.64519531 18.7228418 -43.06382812 18.28552734 -42.46484375 17.83496094 C-11.50063325 -5.00937947 -11.50063325 -5.00937947 0 0 Z " fill="#FEFDFE" transform="translate(210.7890625,120.21484375)"/>
<path d="M0 0 C20.28828367 17.94963111 35.92195131 41.04840379 43.6484375 67.140625 C44.19757813 68.98720703 44.19757813 68.98720703 44.7578125 70.87109375 C48.41483599 83.86942725 50.02064092 96.43073314 49.9609375 109.953125 C49.95911469 110.61115112 49.95729187 111.26917725 49.95541382 111.94714355 C49.90832613 122.06348155 49.27003277 131.33859611 46.6484375 141.140625 C46.29213996 142.59224474 45.93671467 144.04407878 45.58203125 145.49609375 C41.38631672 162.08524882 34.89141765 176.77199221 25.6484375 191.140625 C25.04257812 192.10871094 24.43671875 193.07679688 23.8125 194.07421875 C20.90346266 198.6222503 20.90346266 198.6222503 19.6484375 200.140625 C18.9884375 200.140625 18.3284375 200.140625 17.6484375 200.140625 C17.37749268 199.31208008 17.37749268 199.31208008 17.10107422 198.46679688 C-3.16096566 136.66949521 -34.95418088 78.56406417 -79.19140625 30.51171875 C-81.02641657 28.49752116 -82.81004924 26.45323548 -84.58984375 24.390625 C-94.21976972 13.36464847 -104.75907351 3.0796115 -116.3515625 -5.859375 C-117.46156609 -6.75673164 -118.56952198 -7.65662516 -119.67578125 -8.55859375 C-126.40823729 -14.00912149 -133.21757892 -18.84428221 -140.70703125 -23.203125 C-142.9511827 -24.60862015 -144.60692763 -25.8929137 -146.3515625 -27.859375 C-97.44675122 -49.17408257 -39.07238618 -33.7305495 0 0 Z " fill="#3D5BA8" transform="translate(353.3515625,145.859375)"/>
<path d="M0 0 C3.31226762 1.10408921 3.60900539 1.49238698 5.3828125 4.2890625 C5.82286621 4.97484375 6.26291992 5.660625 6.71630859 6.3671875 C7.18117676 7.11226562 7.64604492 7.85734375 8.125 8.625 C8.61436035 9.3984375 9.1037207 10.171875 9.60791016 10.96875 C11.08119632 13.30684316 12.54108716 15.65292055 14 18 C14.38994141 18.61713867 14.77988281 19.23427734 15.18164062 19.87011719 C34.29034926 50.116965 48.78902919 83.50049368 58.41015625 117.92919922 C59.03069024 120.1077461 59.68303217 122.2747237 60.34375 124.44140625 C62.71725146 132.25055072 64.76756419 139.9132352 66 148 C29.56895971 166.35548572 -10.7096274 172.13485142 -50.1171875 159.31103516 C-58.13002909 156.57221361 -65.75818452 153.43559812 -73 149 C-72.60958979 140.7697857 -70.94999057 133.45248828 -68.4375 125.625 C-68.08324951 124.49956787 -67.72899902 123.37413574 -67.36401367 122.21459961 C-62.76180322 107.81682137 -57.52687984 93.64209814 -51 80 C-50.35918594 78.5970343 -49.72001967 77.1933154 -49.08203125 75.7890625 C-36.49360141 48.31404261 -19.98607309 22.68689377 0 0 Z " fill="#9E1D20" transform="translate(261,237)"/>
<path d="M0 0 C19.51986822 9.24881537 37.17340709 22.00487749 53.1328125 36.484375 C53.66874023 36.96535645 54.20466797 37.44633789 54.75683594 37.94189453 C61.06622031 43.60587115 67.21530797 49.41023064 73.1328125 55.484375 C71.68535499 58.85927593 69.87277396 60.87073993 67.1953125 63.359375 C61.70937925 68.72222641 57.13041225 74.63326735 52.48828125 80.71875 C51.21872817 82.37246179 49.93064487 84.0090643 48.6328125 85.640625 C20.41134524 121.4601796 -0.16589169 162.8665721 -15.8671875 205.484375 C-34.9330663 192.77378913 -45.29960509 160.44370258 -49.95703125 139.2890625 C-57.61544136 100.75218766 -49.59650784 61.06636522 -28.22314453 28.35864258 C-8.2022016 -1.47505533 -8.2022016 -1.47505533 0 0 Z " fill="#9E1D1F" transform="translate(161.8671875,146.515625)"/>
<path d="M0 0 C0.99 0.33 1.98 0.66 3 1 C0.69 3.31 -1.62 5.62 -4 8 C-4.33 7.01 -4.66 6.02 -5 5 C-3.35 3.35 -1.7 1.7 0 0 Z " fill="#982A26" transform="translate(154,150)"/>
</svg>
